<?xml version="1.0" encoding="UTF-8"?>
<svg id="Layer_1" data-name="Layer 1" xmlns="http://www.w3.org/2000/svg" viewBox="0 0 46.16 31.16">
  <defs>
    <style>
      .cls-1 {
        fill: #d6efff;
      }
    </style>
  </defs>
  <path class="cls-1" d="M6.15.19h37.54c1.27,0,2.3,1.03,2.3,2.3h0c0,1.27-1.03,2.3-2.3,2.3H6.15V.19h0Z"/>
  <path class="cls-1" d="M2.62,0h-.06C1.43,0,.37.73.09,1.82c-.43,1.66.81,3.16,2.4,3.16.04,0,.09,0,.13-.01h41.24c1.27.01,2.3-1.02,2.3-2.29v-.38C46.16,1.03,45.13,0,43.86,0H2.62Z"/>
  <path class="cls-1" d="M2.62,13.28h-.06c-1.13,0-2.18.73-2.47,1.82-.43,1.66.81,3.16,2.4,3.16.04,0,.09,0,.13-.01h41.05c1.38.01,2.49-1.1,2.49-2.48h0c0-1.38-1.12-2.49-2.49-2.49H2.62Z"/>
  <path class="cls-1" d="M2.42,26.56h-.06c-1.05,0-2.02.67-2.28,1.68-.4,1.54.75,2.92,2.22,2.92.04,0,.08,0,.12-.01h41.44c1.27,0,2.3-1.02,2.3-2.29h0c0-1.27-1.03-2.3-2.3-2.3H2.42Z"/>
</svg>